HIERARCHY
ROOT hip
{
  OFFSET 0 0 0
  CHANNELS 6 Xposition Yposition Zposition Zrotation Yrotation Xrotation
  JOINT abdomen
  {
    OFFSET 0 20.6881 -0.73152
    CHANNELS 3 Zrotation Xrotation Yrotation
    JOINT chest
    {
      OFFSET 0 11.7043 -0.48768
      CHANNELS 3 Zrotation Xrotation Yrotation
      JOINT neck
      {
        OFFSET 0 22.1894 -2.19456
        CHANNELS 3 Zrotation Xrotation Yrotation
        JOINT head
        {
          OFFSET -0.24384 7.07133 1.2192
          CHANNELS 3 Zrotation Xrotation Yrotation
          JOINT leftEye
          {
            OFFSET 4.14528 8.04674 8.04672
            CHANNELS 3 Zrotation Xrotation Yrotation
            End Site
            {
              OFFSET 1 0 0
            }
          }
          JOINT rightEye
          {
            OFFSET -3.6576 8.04674 8.04672
            CHANNELS 3 Zrotation Xrotation Yrotation
            End Site
            {
              OFFSET 1 0 0
            }
          }
        }
      }
      JOINT rCollar
      {
        OFFSET -2.68224 19.2634 -4.8768
        CHANNELS 3 Zrotation Xrotation Yrotation
        JOINT rShldr
        {
          OFFSET -8.77824 -1.95073 1.46304
          CHANNELS 3 Zrotation Xrotation Yrotation
          JOINT rForeArm
          {
            OFFSET -28.1742 -1.7115 0.48768
            CHANNELS 3 Zrotation Xrotation Yrotation
            JOINT rHand
            {
              OFFSET -22.5879 0.773209 7.07136
              CHANNELS 3 Zrotation Xrotation Yrotation
              JOINT rThumb1
              {
                OFFSET -1.2192 -0.487915 3.41376
                CHANNELS 3 Zrotation Xrotation Yrotation
                JOINT rThumb2
                {
                  OFFSET -3.37035 -0.52449 3.41376
                  CHANNELS 3 Zrotation Xrotation Yrotation
                  End Site
                  {
                    OFFSET -1.78271 -1.18214 1.43049
                  }
                }
              }
              JOINT rIndex1
              {
                OFFSET -7.75947 0.938293 5.60832
                CHANNELS 3 Zrotation Xrotation Yrotation
                JOINT rIndex2
                {
                  OFFSET -2.54057 -0.884171 1.56538
                  CHANNELS 3 Zrotation Xrotation Yrotation
                  End Site
                  {
                    OFFSET -1.62519 -0.234802 1.16502
                  }
                }
              }
              JOINT rMid1
              {
                OFFSET -8.24714 1.18213 3.41376
                CHANNELS 3 Zrotation Xrotation Yrotation
                JOINT rMid2
                {
                  OFFSET -3.10165 -0.590103 1.0647
                  CHANNELS 3 Zrotation Xrotation Yrotation
                  End Site
                  {
                    OFFSET -2.48547 -0.328903 0.83742
                  }
                }
              }
              JOINT rRing1
              {
                OFFSET -8.82822 0.546677 1.51678
                CHANNELS 3 Zrotation Xrotation Yrotation
                JOINT rRing2
                {
                  OFFSET -2.60934 -0.819778 -0.0198488
                  CHANNELS 3 Zrotation Xrotation Yrotation
                  End Site
                  {
                    OFFSET -2.33842 -0.294052 0.168128
                  }
                }
              }
              JOINT rPinky1
              {
                OFFSET -8.27202 -0.0477905 -0.4584
                CHANNELS 3 Zrotation Xrotation Yrotation
                JOINT rPinky2
                {
                  OFFSET -1.82734 -0.647385 -0.700984
                  CHANNELS 3 Zrotation Xrotation Yrotation
                  End Site
                  {
                    OFFSET -1.69225 -0.51767 -0.607171
                  }
                }
              }
            }
          }
        }
      }
      JOINT lCollar
      {
        OFFSET 2.68224 19.2634 -4.8768
        CHANNELS 3 Zrotation Xrotation Yrotation
        JOINT lShldr
        {
          OFFSET 8.77824 -1.95073 1.46304
          CHANNELS 3 Zrotation Xrotation Yrotation
          JOINT lForeArm
          {
            OFFSET 28.1742 -1.7115 0.48768
            CHANNELS 3 Zrotation Xrotation Yrotation
            JOINT lHand
            {
              OFFSET 22.5879 0.773209 7.07136
              CHANNELS 3 Zrotation Xrotation Yrotation
              JOINT lThumb1
              {
                OFFSET 1.2192 -0.487915 3.41376
                CHANNELS 3 Zrotation Xrotation Yrotation
                JOINT lThumb2
                {
                  OFFSET 3.37035 -0.52449 3.41376
                  CHANNELS 3 Zrotation Xrotation Yrotation
                  End Site
                  {
                    OFFSET 1.78271 -1.18214 1.43049
                  }
                }
              }
              JOINT lIndex1
              {
                OFFSET 7.75947 0.938293 5.60832
                CHANNELS 3 Zrotation Xrotation Yrotation
                JOINT lIndex2
                {
                  OFFSET 2.54057 -0.884171 1.56538
                  CHANNELS 3 Zrotation Xrotation Yrotation
                  End Site
                  {
                    OFFSET 1.62519 -0.234802 1.16502
                  }
                }
              }
              JOINT lMid1
              {
                OFFSET 8.24714 1.18213 3.41376
                CHANNELS 3 Zrotation Xrotation Yrotation
                JOINT lMid2
                {
                  OFFSET 3.10165 -0.590103 1.0647
                  CHANNELS 3 Zrotation Xrotation Yrotation
                  End Site
                  {
                    OFFSET 2.48547 -0.328903 0.83742
                  }
                }
              }
              JOINT lRing1
              {
                OFFSET 8.82822 0.546677 1.51678
                CHANNELS 3 Zrotation Xrotation Yrotation
                JOINT lRing2
                {
                  OFFSET 2.60934 -0.819778 -0.0198488
                  CHANNELS 3 Zrotation Xrotation Yrotation
                  End Site
                  {
                    OFFSET 2.33842 -0.294052 0.168128
                  }
                }
              }
              JOINT lPinky1
              {
                OFFSET 8.27202 -0.0477905 -0.4584
                CHANNELS 3 Zrotation Xrotation Yrotation
                JOINT lPinky2
                {
                  OFFSET 1.82734 -0.647385 -0.700984
                  CHANNELS 3 Zrotation Xrotation Yrotation
                  End Site
                  {
                    OFFSET 1.69225 -0.51767 -0.607171
                  }
                }
              }
            }
          }
        }
      }
    }
  }
  JOINT rButtock
  {
    OFFSET -8.77824 4.35084 1.2192
    CHANNELS 3 Zrotation Xrotation Yrotation
    JOINT rThigh
    {
      OFFSET 0 -1.70687 -2.19456
      CHANNELS 3 Zrotation Xrotation Yrotation
      JOINT rShin
      {
        OFFSET 0 -36.8199 0.73152
        CHANNELS 3 Zrotation Xrotation Yrotation
        JOINT rFoot
        {
          OFFSET 0.73152 -45.1104 -5.12064
          CHANNELS 3 Zrotation Xrotation Yrotation
          End Site
          {
            OFFSET -1.1221 -3.69964 12.103
          }
        }
      }
    }
  }
  JOINT lButtock
  {
    OFFSET 8.77824 4.35084 1.2192
    CHANNELS 3 Zrotation Xrotation Yrotation
    JOINT lThigh
    {
      OFFSET 0 -1.70687 -2.19456
      CHANNELS 3 Zrotation Xrotation Yrotation
      JOINT lShin
      {
        OFFSET 0 -36.8199 0.73152
        CHANNELS 3 Zrotation Xrotation Yrotation
        JOINT lFoot
        {
          OFFSET -0.73152 -45.1104 -5.12064
          CHANNELS 3 Zrotation Xrotation Yrotation
          End Site
          {
            OFFSET 1.1221 -3.69964 12.103
          }
        }
      }
    }
  }
}
MOTION
Frames:	7
Frame Time:	0.03333
58.65240000000001 59.624500000000005 -57.816199999999995 -135.805784 70.855265 -144.993619 11.580564 18.492888 50.846775 -4.459951 -6.279808 -31.20899 -8.403391 30.493834 -120.156474 27.898743 29.841526 118.685754 0.003492 0.0 0.001131 0.003492 0.0 0.001131 -44.918194 -86.28785 -66.526493 111.102876 47.220885 -106.067973 89.709407 -19.566289 69.766001 -165.2296 54.725195 141.264905 -2.609158 2.554251 0.457587 -122.368305 -15.080765 109.42814 -50.386371 40.825465 40.025685 13.957406 -11.590888 -3.666097 -153.321243 13.628971 138.862176 -42.426051 58.291079 36.597889 -145.108106 3.757783 179.689411 11.815549 44.716219 -3.841722 17.605825 61.627509 12.867657 14.818526 44.099824 7.907656 40.764333 63.150165 -43.382461 -69.740243 -13.391292 -73.379991 -177.069696 16.461758 -115.387315 -162.158622 -27.300888 -142.474285 121.364875 30.329596 -71.957691 -24.44454 -38.308068 -26.863043 41.543082 38.026421 -32.211014 67.671397 49.939847 -48.1467 36.035946 51.722837 -29.833136 42.042509 58.504971 -36.268258 0.01416 -1.323138 0.41598 156.008563 -13.748603 -173.48374 77.070533 -51.586493 75.530076 153.9395 37.04442 147.276653 -0.00477 0.000997 -0.00477 -12.563368 6.655897 76.791629 52.93168 13.384344 -177.818793 -129.613889 -75.814867 -39.818671 -0.001468 0.000996 -0.002202 66.627901 -46.271146 -107.342933 -42.926347 -74.828528 57.71418 0.704593 -61.833981 90.764073
58.89149999999999 59.473299999999995 -58.1262 -136.076147 71.167194 -145.199841 15.97382 17.659983 -79.011566 5.881174 -3.611279 97.990732 4.475806 32.797164 165.427952 -12.126694 38.813746 -157.609544 0.000141 0.0 0.001315 0.000141 0.0 0.001315 -155.417352 -2.951378 161.718689 -157.482338 69.917452 112.41733 -84.826629 76.470326 136.999209 -3.933315 23.297852 1.627473 -89.135842 38.427192 50.299369 -16.768467 -10.209473 30.955886 -152.106444 -18.556566 121.366938 -62.065511 57.373343 46.097209 -67.738269 60.622197 59.997881 -1.158539 12.651595 2.333846 -0.037462 5.340686 1.681776 -7.017198 62.742185 19.270703 -156.380794 53.734024 -150.119289 -146.808421 7.515192 -140.946276 159.221505 -48.724971 -170.567532 -159.519974 -6.570226 138.635474 31.551021 -2.869151 -15.283772 -7.934622 -12.456304 -4.443659 -81.276577 -49.995184 -32.240117 34.851924 11.176039 4.406134 -0.18242 -0.301132 0.103504 -2.405455 12.522388 -2.290436 -23.900915 -61.334361 -1.396601 163.797572 -5.800671 -143.34117 145.099268 -1.52166 178.651293 -7.873261 -21.55512 12.219258 -1.134355 3.040469 -1.04478 -61.491222 85.766458 23.303433 0.007893 -0.000539 0.003947 -11.782644 7.785288 1.38338 14.794044 48.109141 66.690941 90.292 87.061218 172.42567 179.991366 75.750181 0.008908 -139.181418 6.17142 -88.315882 -87.003139 6.670968 -83.745965 151.841194 16.479102 -176.110994
59.10379999999999 59.34930000000001 -58.45399999999999 -136.389555 71.290594 -145.409337 13.628059 19.577991 -0.0 -0.157745 -8.431619 19.259685 6.465096 31.879103 152.891169 -18.563117 35.742576 -143.807379 0.001571 0.0 0.000196 -0.003359 -0.0 0.004142 -3.768066 17.920937 4.641463 62.938472 7.16945 11.485468 -0.755594 0.163404 50.370034 -6.939146 32.545939 2.320792 -168.137851 -5.814643 89.871604 -28.916658 -31.595481 6.047576 -90.225443 41.073417 75.797031 124.908288 -65.115274 72.612957 -161.518666 -9.304159 143.625918 -175.376441 -39.007052 142.89936 0.004666 1.812825 0.569949 10.175522 0.107255 -0.054156 -145.499962 13.104052 -142.110114 -147.353663 11.04747 -141.538599 -0.071115 -0.427812 0.094675 125.022446 -71.241101 -153.441673 136.957584 7.983287 176.333461 -10.539468 -20.073484 -5.711629 -13.163859 -13.115801 0.520929 -20.935943 -56.272639 26.968339 153.475697 -21.111667 -121.751713 174.521186 -40.240553 -116.345513 -7.904095 -24.807576 3.014701 2.229667 14.72592 -2.663896 72.351707 72.97596 -90.217486 158.816848 -26.472467 -179.876465 32.455286 -42.675257 31.400309 -15.694426 41.63108 -7.936715 0.004026 0.000356 0.004026 -10.969735 6.296027 -119.500093 -46.964728 -27.472591 30.161661 -104.752373 -60.735265 -12.485383 0.005681 0.000318 0.002841 64.821193 -46.746812 159.581514 86.448263 -9.394636 124.37232 -19.033216 27.522459 139.824991
59.3356 59.26050000000001 -58.753699999999995 -137.158772 71.395306 -145.887902 13.48776 19.35742 -0.0 -0.117248 -8.424766 19.114368 -6.202772 15.711917 -21.688513 19.194455 -17.40519 28.805243 -0.003406 -0.0 0.000476 -0.003406 -0.0 0.000476 -9.652222 34.836108 11.199368 98.888075 -51.5303 39.457439 -77.45225 43.334248 113.291835 7.267818 -11.289062 3.96945 6.46459 -6.452288 -0.635028 -30.903743 25.329933 24.136965 -158.399425 -30.156442 122.60535 -7.024896 32.200993 0.415762 -36.035545 51.723325 29.832061 -163.835854 -7.021711 143.475987 -145.061196 -3.305427 -178.087057 2.927207 -43.851757 -17.908305 6.228696 18.789574 5.572661 -154.400103 35.797236 -148.153911 3.908301 18.449274 -4.803594 -175.110578 -64.572652 -94.566623 -21.319436 -87.958142 47.996407 -158.230694 -35.144102 -139.496047 -179.861698 -17.599814 -89.245115 156.603893 4.131898 -85.361904 50.386116 40.82627 -40.02496 -6.600446 -0.028495 2.802347 -23.902515 -61.334059 -1.399151 163.918907 -6.166902 -143.37791 145.123176 1.121571 179.480187 150.425023 -35.136726 173.023607 -12.253325 41.424994 -10.277626 76.545228 -54.585592 75.490032 -179.98879 75.749969 -0.009224 121.319642 77.039694 -15.493255 -45.094549 11.099238 54.906004 154.676504 -18.252062 17.508597 179.994608 75.749969 0.003689 -140.324176 5.030208 -180.0 -83.762352 -82.240897 -109.848262 111.844636 42.570425 167.360742
59.5619 59.2324 -58.999599999999994 -137.414155 71.691255 -146.026358 11.772744 14.963386 141.090333 -3.781699 2.281739 -121.547971 10.658421 24.09661 99.494039 -30.612126 11.217997 -94.042768 0.001076 -0.0 -0.002211 0.001076 -0.0 -0.002211 -80.166306 68.371692 83.260812 0.446081 12.079656 65.125925 -87.0126 -79.125593 -42.754792 -4.132508 24.657616 1.776856 -12.305649 11.514959 3.09449 -161.45795 -64.335854 106.824978 -123.870364 22.788157 104.455082 179.939796 -39.3464 113.987507 -160.340639 -5.644263 143.087985 -164.592505 -8.724542 143.333775 -0.021942 -1.72522 -0.542037 -150.138524 -74.304367 -173.401354 -164.400174 75.86069 -150.2151 0.387966 -2.607765 -2.198201 6.028386 25.557297 -7.218614 116.556288 -25.4925 -141.206111 1.822215 -38.305174 67.493337 -154.320751 -40.842475 -136.608066 175.073429 -12.722137 -89.81653 77.907672 7.375905 -25.098511 100.825055 37.73445 -85.161956 159.947637 -2.758653 -115.039036 167.375642 -28.008493 -145.268761 -27.527993 -57.45387 -5.440764 72.352447 72.973904 -90.218586 80.937725 83.198027 -89.869335 146.185661 15.333442 142.708734 11.038569 -25.308215 13.3373 0.000557 -0.001512 -0.000716 -13.574267 7.150307 90.740152 58.250432 -1.936523 108.143072 -161.306516 27.615469 -118.553717 -179.99365 75.74973 -0.004344 -141.270235 6.115621 97.566651 88.416455 -10.468443 104.430005 115.089519 6.02124 -177.198313
59.727 59.2132 -59.23500000000001 -137.110235 71.746361 -145.56479 13.575669 18.975407 -3.946099 0.396976 -8.352939 23.055506 -9.6542 29.534601 -109.867134 31.693802 25.129786 108.562515 -0.004149 0.0 -0.000487 0.001527 -0.0 -0.000966 -0.217862 1.287411 0.28857 62.995698 21.158625 -1.656683 -100.967416 25.973506 72.222687 42.222353 -58.57687 31.654181 2.01627 -2.000432 -0.275348 -1.095649 0.825659 -0.448258 -23.851051 28.052612 17.147759 -67.342207 48.989688 49.040072 -169.090587 -33.247144 145.37543 2.690507 1.254551 0.509096 -0.001773 0.06392 0.019148 -148.217997 -76.780571 -171.087035 -145.86616 14.28989 -142.430979 56.511573 82.253132 -19.325078 152.128406 14.113127 -157.556659 -118.556236 -41.342545 -163.62009 29.500826 -1.788696 -16.601568 -7.148634 -10.073809 -4.090583 -4.65464 -4.638351 0.5296 131.653293 -27.308074 -117.53071 -25.6961 -44.692475 5.230338 5.025292 27.231985 -6.359254 -0.047317 -0.138627 0.026792 88.695899 64.082809 -80.425813 0.000349 -0.018556 0.005523 -9.358006 11.535124 -1.488905 -1.482119 4.00349 -1.361877 20.073479 -37.783523 20.826217 -0.000445 0.001328 0.000572 -11.484726 7.986622 -60.769707 -48.156222 29.674108 -157.311773 32.825008 39.120734 -170.860568 179.978607 75.749838 0.017602 -140.0036 5.071038 -180.0 -11.961716 -77.344312 136.052404 -43.648971 -32.483486 29.08956
59.8274 59.167899999999996 -59.384800000000006 -137.443925 71.819258 -145.602417 10.895445 15.923096 98.720732 -5.839501 -1.569844 -79.226853 -8.254623 17.173046 -34.94133 25.043157 -12.822344 41.926907 -0.005241 0.0 -0.003782 0.00122 -0.0 -0.000889 -33.832418 -85.666005 -55.250047 -177.338861 4.232306 -136.673687 176.764772 74.178751 103.139316 160.069985 -31.958094 140.798909 -171.603366 -9.286149 89.950695 -45.596953 -16.929285 8.031572 -158.229481 -29.848107 122.589801 96.167672 -70.576812 41.827475 78.535795 -80.919813 49.685086 3.242559 -0.64359 0.089741 -0.009545 -0.831253 -0.260547 -155.778172 -8.258204 172.847716 -26.565112 -38.860594 -25.606123 3.208331 -0.033472 -0.319268 9.651633 34.836257 -11.198836 -35.078802 30.157759 -56.321719 -142.933564 8.903701 -139.369662 -178.50031 20.939924 -149.031756 -1.178069 -1.165766 0.168757 -0.996702 -1.622168 1.627862 0.687567 1.108627 -0.392427 86.526446 47.209948 -67.701441 129.363089 47.297209 -118.700773 -3.330234 0.211038 -0.283469 77.741158 72.904241 -95.869837 3.478441 -62.259598 19.01709 135.457504 -12.621805 132.83923 9.566987 -24.123397 12.424341 -179.999799 75.750199 -0.000421 120.942754 75.483162 -120.129247 -0.605264 -57.11655 41.535509 177.551016 10.589477 -94.241522 179.976348 75.750281 0.019461 -139.103419 6.288113 -88.191882 -82.336483 13.528081 171.394974 -8.549996 -14.473328 -93.060065
